<?xml version="1.0" encoding="UTF-8" standalone="no"?>
<!-- Created with Inkscape (http://www.inkscape.org/) -->

<svg
   xmlns:dc="http://purl.org/dc/elements/1.1/"
   xmlns:cc="http://creativecommons.org/ns#"
   xmlns:rdf="http://www.w3.org/1999/02/22-rdf-syntax-ns#"
   xmlns:svg="http://www.w3.org/2000/svg"
   xmlns="http://www.w3.org/2000/svg"
   xmlns:sodipodi="http://sodipodi.sourceforge.net/DTD/sodipodi-0.dtd"
   xmlns:inkscape="http://www.inkscape.org/namespaces/inkscape"
   width="16"
   height="16"
   viewBox="0 0 4.2333332 4.2333335"
   version="1.1"
   id="svg8"
   inkscape:version="0.92.4 (5da689c313, 2019-01-14)"
   sodipodi:docname="script_particles.svg">
  <defs
     id="defs2" />
  <sodipodi:namedview
     id="base"
     pagecolor="#ffffff"
     bordercolor="#666666"
     borderopacity="1.0"
     inkscape:pageopacity="0.0"
     inkscape:pageshadow="2"
     inkscape:zoom="31.678384"
     inkscape:cx="6.9075452"
     inkscape:cy="7.2297188"
     inkscape:document-units="px"
     inkscape:current-layer="layer1"
     showgrid="false"
     units="px"
     inkscape:pagecheckerboard="true"
     inkscape:window-width="1366"
     inkscape:window-height="705"
     inkscape:window-x="-8"
     inkscape:window-y="-8"
     inkscape:window-maximized="1" />
  <metadata
     id="metadata5">
    <rdf:RDF>
      <cc:Work
         rdf:about="">
        <dc:format>image/svg+xml</dc:format>
        <dc:type
           rdf:resource="http://purl.org/dc/dcmitype/StillImage" />
        <dc:title></dc:title>
      </cc:Work>
    </rdf:RDF>
  </metadata>
  <g
     inkscape:label="Layer 1"
     inkscape:groupmode="layer"
     id="layer1"
     transform="translate(0,-292.76665)">
    <path
       style="fill:#fc9c9c;fill-opacity:0.99607801;stroke-width:1.43314362"
       d="M 8 0.6796875 C 5.7558163 0.68017884 3.8257463 2.4444014 3.390625 4.890625 C 1.8428576 5.106247 0.69051434 6.429504 0.68945312 7.9921875 C 0.69015786 9.7217749 2.0907364 11.124282 3.8203125 11.125 L 12.175781 11.125 C 13.90645 11.125794 15.309842 9.7228332 15.310547 7.9921875 C 15.30772 6.4286725 14.15442 5.1053655 12.605469 4.8925781 C 12.171795 2.4475641 10.242846 0.68335364 8 0.6796875 z M 6.9921875 3.1777344 L 10.519531 3.1777344 A 1.0078859 1.0078859 0 0 1 11.527344 4.1855469 L 11.527344 5.1933594 L 10.015625 5.1933594 L 10.015625 5.6972656 L 10.015625 9.2246094 A 1.0078859 1.0078859 0 0 1 9.0078125 10.234375 L 5.4804688 10.234375 L 5.4804688 10.232422 C 4.9238286 10.232422 4.4726562 9.781296 4.4726562 9.2246094 L 4.4726562 8.2167969 L 4.4726562 7.7128906 L 4.9765625 7.7128906 L 5.984375 7.7128906 L 5.984375 4.1855469 C 5.984375 3.6289359 6.4355323 3.1777344 6.9921875 3.1777344 z M 6.8046875 3.71875 C 6.8000268 3.7206355 6.7956058 3.7225897 6.7910156 3.7246094 A 0.50394292 0.50394292 0 0 1 6.8046875 3.71875 z M 3.8203125 12.167969 C 3.2437741 12.168196 2.7775587 12.636361 2.7773438 13.212891 C 2.7760313 13.790667 3.2426935 14.259577 3.8203125 14.259766 C 4.397929 14.259577 4.866547 13.790516 4.8652344 13.212891 C 4.8650193 12.636248 4.3968522 12.168196 3.8203125 12.167969 z M 12.175781 12.167969 C 11.599243 12.168196 11.133028 12.636361 11.132812 13.212891 C 11.131501 13.790667 11.598162 14.259577 12.175781 14.259766 C 12.754496 14.261088 13.223972 13.791612 13.222656 13.212891 C 13.222442 12.635152 12.753413 12.166646 12.175781 12.167969 z M 8 13.212891 C 7.4223778 13.213117 6.9537659 13.68214 6.9550781 14.259766 C 6.955323 14.83637 7.4234815 15.302545 8 15.302734 C 8.5765167 15.302545 9.044677 14.836333 9.0449219 14.259766 C 9.0462345 13.681989 8.5776191 13.213117 8 13.212891 z "
       transform="matrix(0.26458333,0,0,0.26458333,0,292.76665)"
       id="path823" />
    <circle
       style="fill:#e0e0e0;stroke-width:0.1333349"
       r="0"
       cx="1.4499922"
       cy="295.07422"
       id="circle842" />
  </g>
</svg>
